<svg xmlns="http://www.w3.org/2000/svg" xmlns:xlink="http://www.w3.org/1999/xlink" width="500" zoomAndPan="magnify" viewBox="0 0 375 374.999991" height="500" preserveAspectRatio="xMidYMid meet" version="1.2"><defs/><g id="95edcef58a"><g style="fill:#000000;fill-opacity:1;"><g transform="translate(176.146063, 285.822045)"><path style="stroke:none" d="M 166.609375 -201.34375 C 168.453125 -201.34375 169.375 -200.585938 169.375 -199.078125 L 169.375 -2.265625 C 169.375 -0.753906 168.453125 0 166.609375 0 L 133.390625 0 C 133.222656 0 132.84375 -0.0820312 132.25 -0.25 C 131.664062 -0.414062 131.289062 -0.582031 131.125 -0.75 L 38.5 -133.390625 L 38.5 -48.328125 L 0 -48.328125 L 0 -199.078125 C 0 -200.585938 0.835938 -201.34375 2.515625 -201.34375 L 35.984375 -201.34375 C 36.328125 -201.34375 36.75 -201.296875 37.25 -201.203125 C 37.75 -201.117188 38.082031 -200.910156 38.25 -200.578125 L 131.125 -67.953125 L 131.125 -199.078125 C 131.125 -200.585938 132.128906 -201.34375 134.140625 -201.34375 Z M 166.609375 -201.34375 "/></g></g><g style="fill:#000000;fill-opacity:1;"><g transform="translate(20.906293, 335.802832)"><path style="stroke:none" d="M 115.765625 -100.171875 C 115.765625 -94.960938 113.960938 -90.515625 110.359375 -86.828125 C 106.753906 -83.140625 102.265625 -81.296875 96.890625 -81.296875 C 91.691406 -81.296875 87.242188 -83.140625 83.546875 -86.828125 C 79.859375 -90.515625 78.015625 -94.960938 78.015625 -100.171875 C 78.015625 -105.535156 79.859375 -110.0625 83.546875 -113.75 C 87.242188 -117.445312 91.691406 -119.296875 96.890625 -119.296875 C 102.265625 -119.296875 106.753906 -117.445312 110.359375 -113.75 C 113.960938 -110.0625 115.765625 -105.535156 115.765625 -100.171875 Z M 193.78125 -100.921875 C 193.78125 -88.335938 191.765625 -76.046875 187.734375 -64.046875 C 183.710938 -52.054688 177.675781 -41.234375 169.625 -31.578125 C 161.570312 -21.929688 151.503906 -14.253906 139.421875 -8.546875 C 127.347656 -2.847656 113.253906 0 97.140625 0 C 80.867188 0 66.648438 -2.847656 54.484375 -8.546875 C 42.316406 -14.253906 32.207031 -21.929688 24.15625 -31.578125 C 16.101562 -41.234375 10.0625 -52.054688 6.03125 -64.046875 C 2.007812 -76.046875 0 -88.335938 0 -100.921875 C 0 -113.503906 2.007812 -125.75 6.03125 -137.65625 C 10.0625 -149.570312 16.101562 -160.3125 24.15625 -169.875 C 32.207031 -179.4375 42.316406 -187.070312 54.484375 -192.78125 C 66.648438 -198.488281 80.867188 -201.34375 97.140625 -201.34375 C 113.253906 -201.34375 127.347656 -198.488281 139.421875 -192.78125 C 151.503906 -187.070312 161.570312 -179.4375 169.625 -169.875 C 177.675781 -160.3125 183.710938 -149.570312 187.734375 -137.65625 C 191.765625 -125.75 193.78125 -113.503906 193.78125 -100.921875 Z M 156.03125 -100.171875 C 156.03125 -108.390625 154.769531 -116.398438 152.25 -124.203125 C 149.738281 -132.003906 146.050781 -139.050781 141.1875 -145.34375 C 136.320312 -151.632812 130.195312 -156.625 122.8125 -160.3125 C 115.4375 -164.007812 106.878906 -165.859375 97.140625 -165.859375 C 87.242188 -165.859375 78.601562 -164.007812 71.21875 -160.3125 C 63.84375 -156.625 57.675781 -151.632812 52.71875 -145.34375 C 47.769531 -139.050781 44.078125 -132.003906 41.640625 -124.203125 C 39.210938 -116.398438 38 -108.390625 38 -100.171875 C 38 -92.109375 39.210938 -84.21875 41.640625 -76.5 C 44.078125 -68.789062 47.769531 -61.832031 52.71875 -55.625 C 57.675781 -49.414062 63.84375 -44.460938 71.21875 -40.765625 C 78.601562 -37.078125 87.242188 -35.234375 97.140625 -35.234375 C 106.878906 -35.234375 115.4375 -37.078125 122.8125 -40.765625 C 130.195312 -44.460938 136.320312 -49.414062 141.1875 -55.625 C 146.050781 -61.832031 149.738281 -68.789062 152.25 -76.5 C 154.769531 -84.21875 156.03125 -92.109375 156.03125 -100.171875 Z M 156.03125 -100.171875 "/></g></g></g></svg>