<svg xmlns="http://www.w3.org/2000/svg" xmlns:xlink="http://www.w3.org/1999/xlink" width="500" zoomAndPan="magnify" viewBox="0 0 375 374.999991" height="500" preserveAspectRatio="xMidYMid meet" version="1.2"><defs/><g id="5e202df5c3"><g style="fill:#000000;fill-opacity:1;"><g transform="translate(180.973176, 233.366858)"><path style="stroke:none" d="M 95.765625 -115.734375 C 96.828125 -115.734375 97.359375 -115.300781 97.359375 -114.4375 L 97.359375 -1.296875 C 97.359375 -0.429688 96.828125 0 95.765625 0 L 76.671875 0 C 76.578125 0 76.359375 -0.046875 76.015625 -0.140625 C 75.679688 -0.242188 75.46875 -0.34375 75.375 -0.4375 L 22.140625 -76.671875 L 22.140625 -27.78125 L 0 -27.78125 L 0 -114.4375 C 0 -115.300781 0.484375 -115.734375 1.453125 -115.734375 L 20.6875 -115.734375 C 20.882812 -115.734375 21.125 -115.707031 21.40625 -115.65625 C 21.695312 -115.613281 21.890625 -115.492188 21.984375 -115.296875 L 75.375 -39.0625 L 75.375 -114.4375 C 75.375 -115.300781 75.953125 -115.734375 77.109375 -115.734375 Z M 95.765625 -115.734375 "/></g></g><g style="fill:#000000;fill-opacity:1;"><g transform="translate(91.733523, 262.098338)"><path style="stroke:none" d="M 66.546875 -57.578125 C 66.546875 -54.585938 65.507812 -52.03125 63.4375 -49.90625 C 61.363281 -47.789062 58.785156 -46.734375 55.703125 -46.734375 C 52.710938 -46.734375 50.15625 -47.789062 48.03125 -49.90625 C 45.90625 -52.03125 44.84375 -54.585938 44.84375 -57.578125 C 44.84375 -60.660156 45.90625 -63.265625 48.03125 -65.390625 C 50.15625 -67.515625 52.710938 -68.578125 55.703125 -68.578125 C 58.785156 -68.578125 61.363281 -67.515625 63.4375 -65.390625 C 65.507812 -63.265625 66.546875 -60.660156 66.546875 -57.578125 Z M 111.390625 -58.015625 C 111.390625 -50.773438 110.234375 -43.707031 107.921875 -36.8125 C 105.609375 -29.914062 102.132812 -23.695312 97.5 -18.15625 C 92.875 -12.613281 87.085938 -8.203125 80.140625 -4.921875 C 73.203125 -1.640625 65.101562 0 55.84375 0 C 46.488281 0 38.3125 -1.640625 31.3125 -4.921875 C 24.320312 -8.203125 18.507812 -12.613281 13.875 -18.15625 C 9.25 -23.695312 5.78125 -29.914062 3.46875 -36.8125 C 1.15625 -43.707031 0 -50.773438 0 -58.015625 C 0 -65.242188 1.15625 -72.28125 3.46875 -79.125 C 5.78125 -85.976562 9.25 -92.15625 13.875 -97.65625 C 18.507812 -103.15625 24.320312 -107.539062 31.3125 -110.8125 C 38.3125 -114.09375 46.488281 -115.734375 55.84375 -115.734375 C 65.101562 -115.734375 73.203125 -114.09375 80.140625 -110.8125 C 87.085938 -107.539062 92.875 -103.15625 97.5 -97.65625 C 102.132812 -92.15625 105.609375 -85.976562 107.921875 -79.125 C 110.234375 -72.28125 111.390625 -65.242188 111.390625 -58.015625 Z M 89.703125 -57.578125 C 89.703125 -62.304688 88.976562 -66.910156 87.53125 -71.390625 C 86.082031 -75.878906 83.957031 -79.929688 81.15625 -83.546875 C 78.363281 -87.160156 74.84375 -90.03125 70.59375 -92.15625 C 66.351562 -94.28125 61.4375 -95.34375 55.84375 -95.34375 C 50.15625 -95.34375 45.1875 -94.28125 40.9375 -92.15625 C 36.695312 -90.03125 33.15625 -87.160156 30.3125 -83.546875 C 27.46875 -79.929688 25.34375 -75.878906 23.9375 -71.390625 C 22.539062 -66.910156 21.84375 -62.304688 21.84375 -57.578125 C 21.84375 -52.953125 22.539062 -48.421875 23.9375 -43.984375 C 25.34375 -39.546875 27.46875 -35.539062 30.3125 -31.96875 C 33.15625 -28.40625 36.695312 -25.5625 40.9375 -23.4375 C 45.1875 -21.3125 50.15625 -20.25 55.84375 -20.25 C 61.4375 -20.25 66.351562 -21.3125 70.59375 -23.4375 C 74.84375 -25.5625 78.363281 -28.40625 81.15625 -31.96875 C 83.957031 -35.539062 86.082031 -39.546875 87.53125 -43.984375 C 88.976562 -48.421875 89.703125 -52.953125 89.703125 -57.578125 Z M 89.703125 -57.578125 "/></g></g></g></svg>